<svg width="75" height="75" viewBox="0 0 75 75" fill="none" xmlns="http://www.w3.org/2000/svg">
<path d="M65.5927 75H46.7147C46.8122 74.3652 46.861 73.7549 46.861 73.1689C46.861 69.0186 46.3854 64.856 45.4342 60.6812C44.483 56.5063 43.1537 53.3936 41.4464 51.3428C47.7878 50.8057 52.6171 48.938 55.9342 45.7397C59.2513 42.5415 60.9098 38.4033 60.9098 33.3252C60.9098 28.8818 59.3488 25.4639 56.2269 23.0713V16.4062C56.2269 15.918 55.9586 15.4053 55.422 14.8682C54.8854 14.3311 54.3732 14.0625 53.8854 14.0625C53.3 14.0625 50.3976 15.7715 45.1781 19.1895C42.8854 18.8965 40.3244 18.75 37.4952 18.75C34.6659 18.75 32.1049 18.8965 29.8122 19.1895C24.5927 15.7715 21.6903 14.0625 21.1049 14.0625C20.6171 14.0625 20.1049 14.3311 19.5683 14.8682C19.0317 15.4053 18.7634 15.918 18.7634 16.4062C18.7634 16.8457 18.7147 17.9199 18.6171 19.6289C18.5195 21.3379 18.4464 22.583 18.3976 23.3643C15.5195 25.7568 14.0805 29.0771 14.0805 33.3252C14.0805 38.4033 15.7391 42.5415 19.0561 45.7397C22.3732 48.938 27.2025 50.8057 33.5439 51.3428C33.3 51.6846 32.9586 52.1973 32.5195 52.8809C30.422 55.127 27.3976 56.25 23.4464 56.25C22.6659 56.25 21.8854 55.9326 21.1049 55.2979C20.3244 54.6631 19.5561 53.8818 18.8 52.9541C18.0439 52.0264 17.2513 51.0986 16.422 50.1709C15.5927 49.2432 14.5683 48.4619 13.3488 47.8271C12.1293 47.1924 10.8122 46.875 9.39759 46.875C9.39759 47.2656 9.6415 47.7661 10.1293 48.3765C10.6171 48.9868 11.2634 49.7925 12.0683 50.7935C12.8732 51.7944 13.5439 52.832 14.0805 53.9062C15.3488 56.3965 16.6659 58.1909 18.0317 59.2896C19.3976 60.3882 21.2025 60.9375 23.4464 60.9375C25.7878 60.9375 27.9098 60.5957 29.8122 59.9121C28.6903 64.209 28.1293 68.6279 28.1293 73.1689C28.1293 73.7549 28.1781 74.3652 28.2756 75H9.39759C6.81223 75 4.60491 74.0845 2.77564 72.2534C0.946372 70.4224 0.0317383 68.2129 0.0317383 65.625V9.375C0.0317383 6.78711 0.946372 4.57764 2.77564 2.74658C4.60491 0.915527 6.81223 0 9.39759 0H65.5927C68.1781 0 70.3854 0.915527 72.2147 2.74658C74.0439 4.57764 74.9586 6.78711 74.9586 9.375V65.625C74.9586 68.2129 74.0439 70.4224 72.2147 72.2534C70.3854 74.0845 68.1781 75 65.5927 75V75Z" fill="#333333"/>
</svg>
