<svg width="25" height="25" viewBox="0 0 25 25" fill="none" xmlns="http://www.w3.org/2000/svg">
<path d="M4.90199 0.00674438C2.20907 0.00674438 0.00506592 2.21069 0.00506592 4.90367V20.0997C0.00506592 22.7926 2.20902 24.9958 4.90199 24.9958H20.098C22.791 24.9958 24.9941 22.7926 24.9941 20.0997V4.90367C24.9941 2.21074 22.791 0.00674438 20.098 0.00674438H4.90199ZM6.13364 4.13044C7.42484 4.13044 8.22017 4.97809 8.24472 6.09232C8.24472 7.18194 7.42479 8.05342 6.10867 8.05342H6.08444C4.81782 8.05342 3.99914 7.18199 3.99914 6.09232C3.99914 4.97812 4.84259 4.13044 6.13362 4.13044H6.13364ZM17.2606 9.33819C19.7439 9.33819 21.6054 10.9612 21.6054 14.4491V20.9603H17.8316V14.8856C17.8316 13.3591 17.2854 12.3177 15.9197 12.3177C14.8771 12.3177 14.2556 13.0196 13.9828 13.6977C13.8831 13.9403 13.8586 14.2792 13.8586 14.6185V20.9603H10.0848C10.0848 20.9603 10.1343 10.67 10.0848 9.60449H13.8594V11.2126C14.3609 10.4388 15.2579 9.33817 17.2606 9.33817V9.33819ZM4.22174 9.60532H7.99557V20.9604H4.22174V9.60532V9.60532Z" fill="#333333"/>
</svg>
